<?xml version="1.0" standalone="no"?>
<!DOCTYPE svg PUBLIC "-//W3C//DTD SVG 20010904//EN"
 "http://www.w3.org/TR/2001/REC-SVG-20010904/DTD/svg10.dtd">
<svg version="1.0" xmlns="http://www.w3.org/2000/svg"
 width="700.000000pt" height="700.000000pt" viewBox="0 0 700.000000 700.000000"
 preserveAspectRatio="xMidYMid meet">
<metadata>
Created by potrace 1.11, written by Peter Selinger 2001-2013
</metadata>
<g transform="translate(0.000000,700.000000) scale(0.100000,-0.100000)"
fill="#000000" stroke="none">
<path d="M3235 6989 c-1014 -81 -1926 -582 -2536 -1395 -293 -391 -508 -857
-613 -1329 -138 -627 -107 -1257 94 -1865 125 -381 339 -773 596 -1095 114
-142 388 -417 529 -529 537 -428 1129 -672 1840 -758 129 -16 581 -16 710 0
711 86 1303 330 1840 758 141 113 416 388 529 529 379 476 628 1030 725 1610
36 215 45 336 45 585 0 319 -26 543 -95 830 -242 995 -919 1841 -1838 2300
-565 282 -1208 409 -1826 359z m675 -778 c172 -35 312 -92 452 -184 274 -180
456 -436 546 -765 26 -96 26 -100 30 -523 l3 -427 59 -6 c125 -14 253 -114
302 -234 l23 -57 3 -1239 c3 -1352 5 -1302 -54 -1401 -36 -62 -115 -130 -182
-157 l-57 -23 -1535 0 -1535 0 -57 23 c-67 27 -146 95 -182 157 -59 99 -57 49
-54 1401 l3 1239 23 57 c49 120 177 220 302 234 l59 6 3 427 c4 423 4 427 30
523 55 203 138 364 265 517 211 254 530 421 861 451 165 15 582 4 692 -19z"/>
<path d="M3264 5500 c-123 -16 -211 -58 -307 -149 -70 -67 -118 -143 -146
-235 -20 -64 -21 -91 -21 -437 l0 -369 710 0 710 0 0 363 c0 394 -3 422 -57
535 -39 81 -160 200 -243 240 -36 17 -86 36 -110 42 -58 14 -444 21 -536 10z"/>
<path d="M3430 3906 c-119 -25 -216 -112 -250 -224 -16 -50 -20 -92 -20 -193
0 -71 -1 -129 -3 -129 -2 0 -54 29 -117 64 -128 73 -186 91 -272 83 -75 -7
-175 -54 -219 -104 -59 -68 -84 -137 -84 -233 0 -73 4 -93 28 -141 36 -75 100
-132 225 -203 l104 -58 -107 -61 c-141 -81 -177 -114 -217 -195 -30 -60 -33
-76 -33 -152 0 -103 21 -155 90 -229 52 -56 113 -88 194 -103 86 -16 148 2
289 81 l120 68 4 -151 c3 -138 5 -156 29 -206 36 -77 77 -121 151 -161 59 -32
69 -34 158 -34 89 0 99 2 158 34 74 40 115 84 151 161 23 50 26 69 29 206 l4
151 121 -68 c140 -79 203 -97 288 -81 81 15 142 47 194 103 69 74 90 126 90
229 0 77 -3 92 -33 153 -40 80 -72 109 -216 192 l-107 63 103 58 c125 71 189
128 225 203 24 48 28 68 28 141 0 96 -25 165 -84 233 -44 50 -144 97 -219 104
-86 8 -144 -10 -272 -83 -63 -35 -115 -64 -117 -64 -2 0 -3 58 -3 128 0 139
-14 207 -55 271 -28 45 -83 94 -133 120 -31 16 -141 43 -161 40 -3 0 -31 -6
-61 -13z"/>
</g>
</svg>
