<svg viewBox="0 0 320 320" width="320" height="320" fill="none" stroke="none" xmlns="http://www.w3.org/2000/svg">
    <path fill="#ffffff" d="M320 160C320 248.31 248.31 320 160 320C71.69 320 0 248.31 0 160C0 71.69 71.69 0 160 0C248.31 0 320 71.69 320 160Z"/>
    <path fill="#2b5797" d="M172.46 35.19L174.81 35.43L177.13 35.76L179.41 36.19L181.67 36.7L183.89 37.29L186.08 37.97L188.23 38.74L190.34 39.58L192.41 40.51L194.43 41.51L196.41 42.59L198.35 43.74L200.23 44.96L202.07 46.25L203.85 47.61L205.57 49.04L207.24 50.53L208.85 52.08L210.41 53.69L211.89 55.36L213.32 57.09L214.68 58.87L215.97 60.7L217.19 62.59L218.34 64.52L219.42 66.5L220.42 68.52L221.35 70.59L222.19 72.7L222.96 74.85L223.64 77.04L224.24 79.26L224.75 81.52L225.17 83.81L225.5 86.13L225.74 88.47L225.88 90.85L225.93 93.24L225.93 123.05L226.5 123.05L227.2 123.06L227.89 123.1L228.58 123.17L229.25 123.27L229.92 123.39L230.58 123.54L231.23 123.72L231.87 123.91L232.5 124.14L233.11 124.38L233.72 124.65L234.31 124.95L234.89 125.26L235.45 125.6L236 125.95L236.54 126.33L237.06 126.73L237.56 127.14L238.05 127.58L238.52 128.03L238.97 128.5L239.4 128.99L239.82 129.49L240.22 130.01L240.59 130.54L240.95 131.09L241.29 131.66L241.6 132.24L241.89 132.83L242.16 133.43L242.41 134.05L242.63 134.68L242.83 135.32L243 135.96L243.15 136.62L243.28 137.29L243.37 137.97L243.44 138.66L243.49 139.35L243.5 140.05L243.5 248.45L243.49 249.15L243.44 249.84L243.37 250.53L243.28 251.21L243.15 251.87L243.01 252.53L242.83 253.18L242.63 253.82L242.41 254.45L242.16 255.07L241.89 255.67L241.6 256.26L241.29 256.84L240.95 257.4L240.6 257.95L240.22 258.49L239.82 259.01L239.41 259.51L238.97 260L238.52 260.47L238.05 260.92L237.56 261.36L237.06 261.77L236.54 262.17L236.01 262.55L235.46 262.9L234.89 263.24L234.31 263.55L233.72 263.84L233.12 264.11L232.5 264.36L231.88 264.58L231.24 264.78L230.59 264.96L229.93 265.1L229.26 265.23L228.58 265.32L227.9 265.39L227.2 265.44L226.5 265.45L93.5 265.45L92.8 265.44L92.1 265.39L91.42 265.32L90.74 265.23L90.07 265.1L89.41 264.96L88.76 264.78L88.13 264.58L87.5 264.36L86.88 264.11L86.28 263.84L85.69 263.55L85.11 263.24L84.54 262.9L83.99 262.55L83.46 262.17L82.94 261.77L82.44 261.36L81.95 260.92L81.48 260.47L81.03 260L80.59 259.51L80.18 259.01L79.78 258.49L79.4 257.95L79.05 257.4L78.71 256.84L78.4 256.26L78.11 255.67L77.84 255.07L77.59 254.45L77.37 253.82L77.17 253.18L76.99 252.53L76.85 251.87L76.72 251.21L76.63 250.53L76.56 249.84L76.51 249.15L76.5 248.45L76.5 140.05L76.51 139.35L76.56 138.66L76.63 137.97L76.72 137.29L76.85 136.62L76.99 135.96L77.17 135.32L77.37 134.68L77.59 134.05L77.84 133.43L78.11 132.83L78.4 132.24L78.71 131.66L79.05 131.09L79.4 130.54L79.78 130.01L80.18 129.49L80.59 128.99L81.03 128.5L81.48 128.03L81.95 127.58L82.44 127.14L82.94 126.73L83.46 126.33L83.99 125.95L84.54 125.6L85.11 125.26L85.69 124.95L86.28 124.65L86.88 124.38L87.5 124.14L88.13 123.91L88.76 123.72L89.41 123.54L90.07 123.39L90.74 123.27L91.42 123.17L92.1 123.1L92.8 123.06L93.5 123.05L94.06 123.05L94.06 93.24L94.11 90.85L94.26 88.47L94.5 86.13L94.83 83.81L95.25 81.52L95.76 79.26L96.36 77.04L97.04 74.85L97.8 72.7L98.65 70.59L99.57 68.53L100.57 66.5L101.65 64.52L102.8 62.59L104.02 60.7L105.32 58.87L106.68 57.09L108.1 55.36L109.59 53.69L111.14 52.08L112.75 50.53L114.42 49.04L116.15 47.61L117.93 46.25L119.76 44.96L121.65 43.74L123.58 42.59L125.56 41.51L127.59 40.51L129.66 39.58L131.77 38.74L133.92 37.97L136.1 37.29L138.33 36.7L140.58 36.19L142.87 35.76L145.19 35.43L147.54 35.19L149.91 35.05L152.31 35L167.69 35L170.09 35.05L172.46 35.19ZM151.28 68.3L150.26 68.37L149.25 68.47L148.26 68.61L147.28 68.79L146.31 69.01L145.36 69.26L144.42 69.56L143.5 69.88L142.6 70.25L141.71 70.64L140.84 71.07L139.99 71.53L139.16 72.03L138.36 72.55L137.57 73.1L136.81 73.69L136.07 74.3L135.35 74.94L134.66 75.6L134 76.29L133.36 77.01L132.75 77.75L132.16 78.51L131.61 79.3L131.09 80.1L130.59 80.93L130.13 81.78L129.7 82.65L129.31 83.54L128.94 84.44L128.62 85.36L128.32 86.3L128.07 87.25L127.85 88.22L127.67 89.2L127.53 90.19L127.42 91.2L127.36 92.21L127.34 93.24L127.34 123.05L192.65 123.05L192.65 93.24L192.63 92.21L192.57 91.2L192.46 90.19L192.32 89.2L192.14 88.22L191.92 87.25L191.67 86.3L191.38 85.36L191.05 84.44L190.68 83.54L190.29 82.65L189.86 81.78L189.4 80.93L188.9 80.1L188.38 79.3L187.83 78.51L187.24 77.75L186.63 77.01L186 76.29L185.33 75.6L184.64 74.94L183.92 74.3L183.18 73.69L182.42 73.1L181.63 72.55L180.83 72.03L180 71.53L179.15 71.07L178.28 70.64L177.4 70.25L176.49 69.88L175.57 69.56L174.63 69.26L173.68 69.01L172.71 68.79L171.73 68.61L170.74 68.47L169.73 68.37L168.72 68.3L167.69 68.28L152.3 68.28L151.28 68.3Z"/>
    <path fill="#ffffff" d="M191.14 193.52C196.36 190.51 199.26 188.84 199.84 188.5C207.29 184.2 209.84 174.68 205.54 167.23C201.24 159.78 191.71 157.23 184.27 161.53C183.69 161.87 180.79 163.54 175.57 166.55C175.57 160.53 175.57 157.18 175.57 156.51C175.57 147.91 168.6 140.94 160 140.94C151.4 140.94 144.43 147.91 144.43 156.51C144.43 157.18 144.43 160.53 144.43 166.55C139.21 163.54 136.31 161.87 135.73 161.53C128.28 157.23 118.76 159.78 114.46 167.23C110.16 174.68 112.71 184.2 120.16 188.5C120.74 188.84 123.64 190.51 128.86 193.52C123.64 196.53 120.74 198.21 120.16 198.54C112.71 202.84 110.16 212.37 114.46 219.81C117.35 224.81 122.58 227.6 127.96 227.6C130.61 227.6 133.28 226.93 135.73 225.51C136.31 225.18 139.21 223.5 144.43 220.49C144.43 226.52 144.43 229.86 144.43 230.53C144.43 239.13 151.4 246.1 160 246.1C168.6 246.1 175.57 239.13 175.57 230.53C175.57 229.86 175.57 226.52 175.57 220.49C180.79 223.5 183.68 225.18 184.26 225.51C186.72 226.93 189.39 227.6 192.03 227.6C197.42 227.6 202.65 224.81 205.53 219.81C209.84 212.36 207.28 202.84 199.83 198.54C198.68 197.87 195.78 196.2 191.14 193.52Z"/>
</svg>