<svg id="i-eye-slash" viewBox="0 0 64 64" width="32" height="32" fill="currentcolor" stroke="currentcolor" xmlns="http://www.w3.org/2000/svg">
    <path d="M 63.39904,53.83594 3.60087,6.35648 A 1.5999511,1.6250004 0 0 0 1.35194,6.60937 L 0.35197,7.87788 a 1.5999511,1.6250004 0 0 0 0.24899,2.28618 l 59.79817,47.47946 a 1.5999511,1.6250004 0 0 0 2.24893,-0.25289 l 0.99997,-1.26851 A 1.5999511,1.6250004 0 0 0 63.39904,53.83594 Z M 29.67907,20.87586 43.15766,31.57852 C 42.93567,25.49086 38.04782,20.625 32,20.625 a 11.225657,11.401409 0 0 0 -2.32093,0.25086 z M 34.32093,43.12516 20.84234,32.4225 C 21.06533,38.50914 25.95318,43.375 32,43.375 a 11.299655,11.476565 0 0 0 2.32093,-0.24984 z M 32,17.375 c 9.8647,0 18.90842,5.58594 23.79227,14.625 a 28.552128,28.999147 0 0 1 -4.39986,6.11406 l 3.77388,2.9961 a 33.368981,33.891414 0 0 0 5.28984,-7.62836 3.2349012,3.2855476 0 0 0 0,-2.96461 C 55.0283,19.77086 44.29262,12.5 32,12.5 c -3.66989,0 -7.17078,0.71093 -10.46268,1.91039 l 4.64086,3.6857 C 28.07212,17.65937 30.01206,17.375 32,17.375 Z m 0,29.25 C 22.1353,46.625 13.09258,41.03906 8.20773,32 a 28.546128,28.993054 0 0 1 4.40486,-6.11305 L 8.83871,22.89086 a 33.358981,33.881258 0 0 0 -5.28884,7.62734 3.2349012,3.2855476 0 0 0 0,2.96461 C 8.9727,44.22914 19.70838,51.5 32,51.5 c 3.66989,0 7.17078,-0.71601 10.46268,-1.91039 L 37.82182,45.90493 C 35.92788,46.34063 33.98894,46.625 32,46.625 Z"/>
</svg>

