<svg id="i-eye-open" viewBox="0 0 64 64" width="32" height="32" fill="currentcolor" stroke="currentcolor" xmlns="http://www.w3.org/2000/svg">
    <path d="M 32,20.858312 a 11.036239,11.036239 0 0 0 -3.107735,0.497397 5.5111561,5.5111561 0 0 1 0.720231,2.685943 5.5708438,5.5708438 0 0 1 -5.570845,5.570844 A 5.5111561,5.5111561 0 0 1 21.355709,28.892265 11.112839,11.112839 0 1 0 32,20.858312 Z m 28.303866,9.689289 C 54.909102,20.02169 44.228997,12.899964 32,12.899964 c -12.228998,0 -22.912086,7.126702 -28.3038663,17.648633 a 3.2181571,3.2181571 0 0 0 0,2.903802 C 9.0908985,43.978309 19.771002,51.100036 32,51.100036 c 12.228997,0 22.912085,-7.126702 28.303866,-17.648633 a 3.2181571,3.2181571 0 0 0 0,-2.903802 z M 32,46.325028 C 22.186363,46.325028 13.18945,40.853662 8.3308768,32 13.18945,23.146338 22.185368,17.674972 32,17.674972 41.814632,17.674972 50.810551,23.146338 55.669122,32 50.811546,40.853662 41.814632,46.325028 32,46.325028 Z"/>
</svg>